<?xml version="1.0" encoding="UTF-8"?>
<svg id="Capa_1" xmlns="http://www.w3.org/2000/svg" version="1.1" viewBox="0 0 122.75 85">
  <!-- Generator: Adobe Illustrator 29.8.5, SVG Export Plug-In . SVG Version: 2.1.1 Build 2)  -->
  <defs>
    <style>
      .st0 {
        fill: #364251;
      }

      .st1 {
        fill: #f9cb93;
      }

      .st2 {
        fill: #3a4554;
      }

      .st3 {
        fill: #ff827f;
      }

      .st4 {
        fill: #00b6bf;
      }
    </style>
  </defs>
  <path class="st2" d="M24.65,74.13c0,1.75-.03,3.49.01,5.24.02,1-.26,1.49-1.38,1.63-1.98.23-3.97.35-5.96.32-1.97-.03-3.44-1.19-3.7-3.14-.73-5.49-.49-10.98.52-16.4,2.68-14.38,9.36-26.39,21.37-35.08,17.47-12.64,41.28-10.98,57.43,3.99,10.2,9.46,15.74,21.28,17.54,35,.55,4.21.11,8.43.41,12.63.05.76-.35,1.13-1.05,1.19-3.19.25-6.37.59-9.56.66-2.64.06-3.09-.65-2.91-3.25.92-13.1-2.29-24.78-11.46-34.63-15.69-16.85-41.55-14.72-54.13,4.6-5.39,8.28-7.98,17.34-7.14,27.25ZM15.65,73.29c.02.42.01.85.07,1.26.23,1.6-.48,3.92.57,4.63,1.13.77,3.25.02,4.93.06,1.38.03,1.82-.63,1.73-1.87-.04-.48-.08-.96-.13-1.44-1-9.8.41-19.21,5.48-27.72,7.47-12.52,18.42-19.7,33.28-19.38,10.9.23,20.18,4.9,27.22,13.15,8.41,9.85,12.27,21.45,11.22,34.49-.08,1.04.1,1.4,1.19,1.31,1.74-.15,3.49-.25,5.24-.21,1.12.02,1.45-.37,1.5-1.44.65-14.34-2.96-27.38-12-38.68-15.13-18.89-40.38-22.68-59.57-8.56-14.84,10.92-20.74,26.37-20.73,44.4Z"/>
  <path class="st0" d="M27.51,71.77c-.08-12.33,4.33-22.63,14.19-30.25,17.22-13.3,42.04-6.41,50.2,13.94,2.82,7.04,3.71,14.45,3.3,22.02-.09,1.63-.69,2.57-2.55,2.5-2.27-.08-3.1-.88-2.67-3.15.68-3.58.96-7.18.64-10.81-1.36-15.4-19.67-34.06-40.21-25.21-10.01,4.32-15.24,12.82-17.45,23.21-1.05,4.92-1.14,9.92-.06,14.9.22.99-.18,1.59-1.26,1.76-3.05.48-3.5.09-3.89-2.95-.25-1.99-.24-3.97-.24-5.97Z"/>
  <path class="st2" d="M80.09,80.55c-1.09,0-2.17.04-3.26,0-2.19-.09-3.15-1.31-2.73-3.44.99-5.04.68-9.97-1.33-14.72-1.67-3.94-4.28-7.04-8.59-8.18-4.81-1.29-9.85.95-13.21,5.79-3.39,4.9-4.57,10.42-4.39,16.3.02.72.08,1.45.1,2.17.05,1.19-.45,2.04-1.68,2.18-2.39.27-4.79.48-7.19.66-.87.07-1.29-.61-1.53-1.31-5.94-17.21,7.04-39.21,28.23-37.45,10.03.83,19.24,8.98,21.96,19.6,1.38,5.4,1,10.75-.57,16.07-.52,1.75-1.33,2.73-3.3,2.42-.82-.13-1.69-.02-2.53-.02,0-.01,0-.03,0-.04ZM37.14,70.35c.06,2.45.23,4.3.48,6.16.23,1.68.82,2.51,2.66,2.03.74-.19,1.57-.17,2.34-.07,1.73.23,2.01-.46,1.86-2.09-.71-7.49,1.38-14.11,6.7-19.52,6.62-6.73,15.94-6.06,21.65,1.47,3.56,4.69,4.69,10.08,4.59,15.84-.03,1.39-1.11,3.28-.09,4,1.02.72,2.91.15,4.41.27,1.23.1,1.63-.49,1.92-1.57,1.35-4.96,1.25-9.91-.01-14.85-4.1-15.99-21.85-22.89-34.98-13.52-7.65,5.46-11.43,13.01-11.53,21.83Z"/>
  <path class="st0" d="M60.43,68.03c.77-1.28,1.46-2.45,2.85-3.01,2.07-.83,4.09.19,4.49,2.39.48,2.64-.67,4.72-2.41,6.5-1.32,1.35-2.47,2.76-3.18,4.54-.38.96-.94,1.71-1.83.3-.35-.55-.94-.97-1.19-1.55-.63-1.44-1.72-2.25-3.12-2.8-1.67-.66-2.84-1.86-3.2-3.63-.36-1.75.25-3.21,1.83-4.17,1.45-.88,3.65-.67,4.89.46.29.26.52.58.87.97Z"/>
  <path class="st2" d="M65.36,15.27c-1.88-.12-3.35-.55-4.48-1.78-1.07-1.18-1.7-2.48-1.12-4.11.56-1.57,1.69-2.43,3.31-2.7.47-.08.95-.15,1.4-.28,2.55-.74,5.1.55,5.9,3,.73,2.24-.63,4.64-3.16,5.49-.68.23-1.4.3-1.85.39ZM65.1,12.42c1.48.03,2.67-.81,2.63-1.87-.04-.96-2.28-2.82-3.49-2.69-1.26.14-2.05,1-2.11,2.3-.06,1.2,1.37,2.24,2.98,2.27Z"/>
  <path class="st2" d="M29.3,24.87c.06,2.88-2.43,5.43-5.36,5.49-2.64.06-4.68-1.79-4.67-4.22.01-2.58,3.05-5.62,5.65-5.65,2.35-.03,4.34,1.95,4.39,4.38ZM23.41,27.74c1.8,0,3.16-1.4,3.16-2.91,0-1.44-.91-2.01-2.18-2.07-1.46-.07-2.72,1.22-2.67,2.75.04,1.26.59,2.18,1.69,2.23Z"/>
  <path class="st0" d="M43.95,9.2c2.35.01,4.2,1.92,4.19,4.3-.02,2.95-2.94,5.79-5.9,5.74-2.46-.04-4.3-1.83-4.32-4.19-.01-2.93,3.01-5.87,6.03-5.85ZM42.41,17.14c1.71-.02,3.25-1.52,3.27-3.18.02-1.64-.99-2.56-2.77-2.53-1.6.03-2.84,1.49-2.8,3.29.03,1.49.94,2.44,2.3,2.42Z"/>
  <path class="st2" d="M90.17,15.67c0,2.63-2.19,4.8-4.84,4.79-2.31,0-4.2-1.86-4.17-4.08.03-2.13,2.81-4.78,5.06-4.82,2.1-.03,3.95,1.89,3.96,4.11ZM84.92,17.9c1.33.04,2.33-.82,2.39-1.9.06-1.09-1.21-2.5-2.43-2.41-1.21.09-1.6,1.12-1.66,2.2-.07,1.3.63,1.98,1.69,2.11Z"/>
  <path class="st2" d="M16.73,42.64c.01,2.73-2.42,5.04-5.29,5.03-2.16,0-3.71-1.39-3.54-3.41.23-2.78,2.05-5.31,5.04-5.32,2.2,0,3.79,1.56,3.8,3.7ZM9.65,43.92c-.03,1.02.47,1.59,1.48,1.68,1.22.1,2.9-1.34,2.9-2.51,0-.97-.59-1.37-1.52-1.37-1.38.01-2.82,1.11-2.85,2.2Z"/>
  <path class="st2" d="M11.25,59.53c-.03,2.45-1.98,4.39-4.36,4.36-2.31-.03-4.09-1.89-4.03-4.2.06-2.34,2.18-4.48,4.38-4.42,2.27.06,4.04,1.95,4.02,4.25ZM8.32,59.39c-.23-.89-.79-1.57-1.86-1.48-.93.08-1.58.59-1.52,1.65.06,1.05.58,1.78,1.66,1.72,1.02-.05,1.59-.75,1.72-1.89Z"/>
  <path class="st2" d="M114.05,68.74c0-2.31,2.08-4.45,4.32-4.44,2.43.01,4.42,1.98,4.38,4.32-.03,2.33-2.09,4.32-4.45,4.3-2.45-.02-4.25-1.79-4.25-4.18ZM118.55,66.81c-1.76,0-2.72.36-2.65,1.8.06,1.32.96,1.87,2.16,1.9,1.22.03,2.16-.58,2.14-1.87-.02-1.28-.97-1.8-1.65-1.83Z"/>
  <path class="st2" d="M106.93,31.17c.02,2.21-1.88,4.1-4.14,4.12-2.23.02-4.23-1.87-4.27-4.04-.05-2.4,1.67-3.72,5.03-3.86,1.7-.07,3.35,1.77,3.37,3.77ZM102.3,29.37c-.84.29-1.34.75-1.32,1.6.03,1.09.74,1.43,1.69,1.44.75,0,1.35-.28,1.26-1.15-.1-1.02-.92-1.44-1.63-1.89Z"/>
  <path class="st2" d="M8.8,74.24c-.04,2.47-2.1,4.42-4.6,4.37-2.32-.05-4.26-1.95-4.2-4.12.06-2.03,2.51-4.42,4.54-4.41,2.54.01,4.3,1.73,4.26,4.16ZM3.69,76.54c1.4.03,2.55-1.02,2.47-2.2-.1-1.37-.95-1.97-2.27-2.02-1.42-.06-2.09.64-2.14,2.02-.05,1.44.82,2,1.94,2.2Z"/>
  <path class="st2" d="M113.43,50.94c-1.8-.03-3.04-1.28-3.03-3.06,0-1.71,1.81-3.56,3.42-3.52,1.7.04,3.17,1.57,3.16,3.29-.01,1.83-1.63,3.33-3.54,3.29ZM113.18,46.53c-.62-.12-1.12.25-1.17,1.05-.05.86.48,1.36,1.3,1.42.81.06,1.42-.35,1.47-1.22.05-.94-.6-1.21-1.6-1.24Z"/>
  <path class="st2" d="M32.63,19.55c-1.08-.11-1.66-.58-1.58-1.63.09-1.16.82-1.74,1.9-1.7.86.03,1.48.6,1.42,1.53-.08,1.09-.71,1.73-1.75,1.8Z"/>
  <path class="st2" d="M54.32,13.26c-1.11-.04-1.78-.56-1.74-1.64.04-1.08.88-1.59,1.82-1.59.97,0,1.75.58,1.69,1.67-.06,1.05-.79,1.53-1.77,1.56Z"/>
  <path class="st2" d="M107.94,40.01c-1.08-.18-1.57-.77-1.53-1.76.04-.97.67-1.44,1.54-1.35.86.09,1.38.73,1.37,1.62-.01.93-.59,1.38-1.38,1.48Z"/>
  <path class="st2" d="M117.75,57.19c-.06.88-.57,1.38-1.49,1.37-.92,0-1.49-.52-1.46-1.45.02-.97.77-1.35,1.6-1.34.78.01,1.34.47,1.36,1.42Z"/>
  <path class="st2" d="M60.32,61.48c-.88,0-1.58-.35-1.6-1.28-.01-.93.69-1.35,1.55-1.35.9,0,1.48.55,1.5,1.43.01.87-.63,1.2-1.45,1.2Z"/>
  <path class="st2" d="M94.48,23.75c-.89-.03-1.41-.53-1.37-1.34.04-.76.26-1.62,1.29-1.63.91-.01,1.5.55,1.5,1.43,0,.85-.54,1.42-1.42,1.54Z"/>
  <path class="st2" d="M76.98,12.17c-.13.91-.73,1.3-1.51,1.24-.68-.05-1.31-.39-1.25-1.23.07-.95.73-1.34,1.6-1.31.78.03,1.11.6,1.16,1.3Z"/>
  <path class="st2" d="M17.31,34.15c.03-.58.29-.97.86-.97.55,0,.89.4.91.93.02.48-.29.8-.77.84-.55.04-.89-.26-1-.79Z"/>
  <path class="st2" d="M9.44,50.22c0,.56-.24.95-.84.92-.48-.02-.74-.35-.74-.84,0-.46.12-.84.65-.91.6-.07.87.27.93.83Z"/>
  <path class="st3" d="M15.65,73.29c0-18.03,5.89-33.48,20.73-44.4,19.19-14.12,44.45-10.33,59.57,8.56,9.05,11.3,12.66,24.34,12,38.68-.05,1.08-.38,1.47-1.5,1.44-1.74-.04-3.5.07-5.24.21-1.09.09-1.27-.27-1.19-1.31,1.05-13.05-2.81-24.64-11.22-34.49-7.04-8.25-16.32-12.92-27.22-13.15-14.86-.32-25.82,6.86-33.28,19.38-5.07,8.51-6.48,17.92-5.48,27.72.05.48.09.96.13,1.44.09,1.24-.35,1.9-1.73,1.87-1.68-.04-3.8.7-4.93-.06-1.05-.71-.34-3.03-.57-4.63-.06-.42-.05-.84-.07-1.26Z"/>
  <path class="st1" d="M37.14,70.35c.1-8.83,3.88-16.38,11.53-21.83,13.13-9.37,30.88-2.47,34.98,13.52,1.26,4.94,1.36,9.89.01,14.85-.29,1.07-.69,1.67-1.92,1.57-1.5-.12-3.39.45-4.41-.27-1.01-.72.07-2.62.09-4,.11-5.76-1.03-11.16-4.59-15.84-5.71-7.52-15.03-8.2-21.65-1.47-5.32,5.4-7.4,12.03-6.7,19.52.15,1.63-.13,2.32-1.86,2.09-.77-.1-1.6-.13-2.34.07-1.84.49-2.43-.35-2.66-2.03-.25-1.86-.42-3.71-.48-6.16Z"/>
  <path class="st4" d="M65.1,12.42c-1.61-.03-3.04-1.07-2.98-2.27.07-1.3.85-2.16,2.11-2.3,1.21-.13,3.46,1.73,3.49,2.69.04,1.06-1.14,1.9-2.63,1.87Z"/>
  <path class="st4" d="M23.41,27.74c-1.11-.05-1.65-.97-1.69-2.23-.05-1.53,1.2-2.82,2.67-2.75,1.27.06,2.18.62,2.18,2.07,0,1.51-1.36,2.91-3.16,2.91Z"/>
  <path class="st4" d="M42.41,17.14c-1.36.02-2.27-.94-2.3-2.42-.04-1.8,1.2-3.26,2.8-3.29,1.78-.04,2.79.88,2.77,2.53-.02,1.66-1.56,3.16-3.27,3.18Z"/>
  <path class="st4" d="M84.92,17.9c-1.07-.13-1.77-.81-1.69-2.11.06-1.08.44-2.11,1.66-2.2,1.21-.09,2.49,1.32,2.43,2.41-.06,1.08-1.06,1.94-2.39,1.9Z"/>
  <path class="st4" d="M9.65,43.92c.03-1.09,1.47-2.19,2.85-2.2.93,0,1.52.4,1.52,1.37,0,1.17-1.67,2.61-2.9,2.51-1-.08-1.5-.66-1.48-1.67Z"/>
  <path class="st4" d="M8.32,59.39c-.12,1.15-.7,1.84-1.72,1.89-1.08.05-1.61-.67-1.66-1.72-.06-1.06.6-1.57,1.52-1.65,1.07-.09,1.63.59,1.86,1.48Z"/>
  <path class="st4" d="M118.55,66.81c.68.02,1.63.55,1.65,1.83.02,1.29-.92,1.89-2.14,1.87-1.19-.03-2.09-.57-2.16-1.9-.07-1.44.89-1.8,2.65-1.8Z"/>
  <path class="st4" d="M102.3,29.37c.71.44,1.53.87,1.63,1.89.09.87-.51,1.15-1.26,1.15-.95,0-1.66-.35-1.69-1.44-.02-.85.48-1.31,1.32-1.6Z"/>
  <path class="st4" d="M3.69,76.54c-1.12-.2-1.99-.76-1.94-2.2.05-1.38.72-2.08,2.14-2.02,1.32.05,2.17.65,2.27,2.02.08,1.19-1.07,2.23-2.47,2.2Z"/>
  <path class="st4" d="M113.18,46.53c1,.03,1.65.3,1.6,1.24-.05.87-.66,1.28-1.47,1.22-.82-.06-1.35-.56-1.3-1.42.05-.8.54-1.16,1.17-1.05Z"/>
</svg>