<?xml version="1.0" encoding="UTF-8"?>
<svg id="Capa_1" xmlns="http://www.w3.org/2000/svg" version="1.1" viewBox="0 0 101.16 100">
  <!-- Generator: Adobe Illustrator 29.8.2, SVG Export Plug-In . SVG Version: 2.1.1 Build 3)  -->
  <defs>
    <style>
      .st0 {
        fill: #fff;
      }

      .st1 {
        display: none;
      }
    </style>
  </defs>
  <g class="st1">
    <g>
      <rect class="st0" width="101.16" height="100"/>
      <g id="_x35_71-Celebrate_x2C__Firework_x2C__Party_Time">
        <g>
          <path d="M79.61,77.1c-.91-2.7-12.95-36.6-13.45-38-.3-.9-1.42-1.1-2.12-.5l-5.66,5.6c-3.54-4-4.96-8.8-5.56-12.2-.71-4-.4-7-.4-7.1.1-.7-.4-1.3-1.11-1.4-.71-.1-1.31.4-1.42,1.1,0,.1-.4,3.4.4,7.7.91,5.3,3.03,10,6.27,13.6l-2.33,2.3c-5.97-5.5-8.09-12.2-8.09-12.3-.2-.7-.91-1-1.62-.8-.71.2-1.01.9-.81,1.6.1.3,2.33,7.5,8.8,13.4l-1.92,1.8c-5.97-6.4-12.95-8.8-13.25-8.9-.71-.2-1.42.1-1.62.8-.2.7.1,1.4.81,1.6.1,0,6.78,2.3,12.34,8.3l-2.12,2.1c-3.64-3.2-8.4-5.3-13.76-6.2-4.35-.7-7.69-.4-7.79-.4-.71.1-1.21.7-1.11,1.4.1.7.71,1.2,1.42,1.1.1,0,11.33-1.2,19.52,5.9l-5.87,5.8c-.71.7-.4,1.8.51,2.1,1.42.5,35.71,12.3,38.44,13.3.91.2,1.82-.7,1.52-1.7ZM64.44,41.8l.91,2.6-20.43,20.2-2.63-.9,22.15-21.9ZM47.54,65.5l18.71-18.5,10.01,28.4-28.73-9.9Z"/>
          <path d="M61.4,57.2c-.51-.5-1.31-.5-1.82,0l-3.54,3.5c-.51.5-.51,1.3,0,1.8.51.5,1.31.5,1.82,0l3.54-3.5c.51-.5.51-1.3,0-1.8Z"/>
          <path d="M64.94,60.7c-.51-.5-1.31-.5-1.82,0l-1.82,1.8c-.51.5-.51,1.3,0,1.8s1.31.5,1.82,0l1.82-1.8c.51-.5.51-1.3,0-1.8Z"/>
          <path d="M64.13,68.7c.51.5,1.31.5,1.82,0l4.45-4.4c.51-.5.51-1.3,0-1.8-.51-.5-1.31-.5-1.82,0l-4.45,4.4c-.51.5-.51,1.3,0,1.8Z"/>
          <path d="M66.76,57.6c.73,0,1.31.58,1.31,1.3s-.59,1.3-1.31,1.3-1.31-.58-1.31-1.3.59-1.3,1.31-1.3Z"/>
          <path d="M62.01,30c.73,0,1.31.58,1.31,1.3s-.59,1.3-1.31,1.3-1.31-.58-1.31-1.3.59-1.3,1.31-1.3Z"/>
          <path d="M40.46,26.2c.73,0,1.31.58,1.31,1.3s-.59,1.3-1.31,1.3-1.31-.58-1.31-1.3.59-1.3,1.31-1.3Z"/>
          <path d="M29.13,37.5c.73,0,1.32.58,1.32,1.3s-.59,1.3-1.32,1.3-1.32-.58-1.32-1.3.59-1.3,1.32-1.3Z"/>
          <path d="M30.35,55c.73,0,1.31.58,1.31,1.3s-.59,1.3-1.31,1.3-1.32-.58-1.32-1.3.59-1.3,1.32-1.3Z"/>
          <path d="M54.22,62.9c.73,0,1.31.58,1.31,1.3s-.59,1.3-1.31,1.3-1.32-.58-1.32-1.3.59-1.3,1.32-1.3Z"/>
          <path d="M77.79,59.9c.73,0,1.31.58,1.31,1.3s-.59,1.3-1.31,1.3-1.31-.58-1.31-1.3.59-1.3,1.31-1.3Z"/>
          <path d="M42.39,68.7c.73,0,1.32.58,1.32,1.3s-.59,1.3-1.32,1.3-1.31-.58-1.31-1.3.59-1.3,1.31-1.3Z"/>
          <path d="M29.74,65c-2.12,0-3.84,1.7-3.84,3.8s1.72,3.8,3.84,3.8,3.84-1.7,3.84-3.8-1.82-3.8-3.84-3.8ZM29.74,70c-.71,0-1.32-.6-1.32-1.3s.61-1.3,1.32-1.3,1.31.6,1.31,1.3c-.1.7-.61,1.3-1.31,1.3Z"/>
          <path d="M53.72,72.5c-1.72,0-3.14,1.4-3.14,3.1s1.42,3.1,3.14,3.1,3.14-1.4,3.14-3.1-1.42-3.1-3.14-3.1ZM53.72,76.3c-.3,0-.61-.3-.61-.6s.3-.6.61-.6.61.3.61.6-.2.6-.61.6Z"/>
          <path d="M29.03,27.5c1.72,0,3.14-1.4,3.14-3.1s-1.42-3.1-3.14-3.1-3.14,1.4-3.14,3.1,1.42,3.1,3.14,3.1ZM29.03,23.8c.3,0,.61.3.61.6s-.2.6-.61.6c-.3,0-.61-.3-.61-.6s.3-.6.61-.6Z"/>
          <path d="M68.89,30c2.12,0,3.84-1.7,3.84-3.8s-1.72-3.8-3.84-3.8-3.84,1.7-3.84,3.8,1.82,3.8,3.84,3.8ZM68.89,25c.71,0,1.31.6,1.31,1.3s-.61,1.3-1.31,1.3-1.32-.6-1.32-1.3c.1-.7.61-1.3,1.32-1.3Z"/>
        </g>
      </g>
    </g>
  </g>
  <g id="_x35_66-Music_x2C__Note_x2C__Sound">
    <g>
      <path d="M56.27,37.62l-23.98,5.6c-.61.1-1.01.6-1.01,1.2v19.9c-1.01-.7-2.23-1.1-3.44-1.1-3.34,0-5.97,2.7-5.97,5.9s2.73,5.9,5.97,5.9c3.44,0,6.17-2.8,5.97-6.2,0-.1,0,.9,0-15.4l21.45-4.9v10.4c-1.01-.7-2.23-1.1-3.44-1.1-3.34,0-5.97,2.7-5.97,5.9s2.73,5.9,5.97,5.9c3.44,0,6.27-2.9,5.97-6.4,0-.2,0,1.6,0-24.6.1-.6-.71-1.2-1.52-1ZM27.84,72.62c-1.92,0-3.44-1.5-3.44-3.4s1.52-3.4,3.44-3.4,3.44,1.5,3.44,3.4-1.52,3.4-3.44,3.4ZM33.81,45.42l21.45-5v5.6l-21.45,4.9v-5.5ZM51.82,67.22c-1.92,0-3.44-1.5-3.44-3.4s1.52-3.4,3.44-3.4,3.44,1.5,3.44,3.4c.1,1.9-1.52,3.4-3.44,3.4Z"/>
      <path d="M81.35,29.42c-9.51-6.8-8.9-6.3-9-6.4-.81-.4-1.72.1-1.82,1v15.2c-1.01-.8-2.33-1.3-3.84-1.3-3.44,0-6.37,2.8-6.37,6.3s2.83,6.3,6.37,6.3,6.37-2.8,6.37-6.3v-6.7l8.29-5.9c.3-.2.51-.6.51-1s-.2-1-.51-1.2ZM66.69,47.92c-2.12,0-3.84-1.7-3.84-3.8s1.72-3.8,3.84-3.8,3.84,1.7,3.84,3.8-1.72,3.8-3.84,3.8ZM73.06,34.32v-7.7l5.46,3.9-5.46,3.8Z"/>
      <path d="M31.28,36.62c2.83,0,5.06-2.2,5.06-5s-2.23-5-5.06-5-5.06,2.2-5.06,5,2.23,5,5.06,5ZM31.28,29.12c1.42,0,2.53,1.1,2.53,2.5s-1.11,2.5-2.53,2.5-2.53-1.1-2.53-2.5,1.11-2.5,2.53-2.5Z"/>
      <path d="M70.53,60.42c-2.12,0-3.84,1.7-3.84,3.8s1.72,3.8,3.84,3.8,3.84-1.7,3.84-3.8-1.82-3.8-3.84-3.8ZM70.53,65.42c-.71,0-1.31-.6-1.31-1.3s.61-1.3,1.31-1.3,1.21.6,1.21,1.3-.61,1.3-1.21,1.3Z"/>
      <path d="M62.94,24.12c.73,0,1.32.58,1.32,1.3s-.59,1.3-1.32,1.3-1.31-.58-1.31-1.3.59-1.3,1.31-1.3Z"/>
      <path d="M50.3,30.32c.73,0,1.31.58,1.31,1.3s-.59,1.3-1.31,1.3-1.31-.58-1.31-1.3.59-1.3,1.31-1.3Z"/>
      <path d="M37.65,24.12c.73,0,1.31.58,1.31,1.3s-.59,1.3-1.31,1.3-1.31-.58-1.31-1.3.59-1.3,1.31-1.3Z"/>
      <path d="M26.22,47.82c.73,0,1.31.58,1.31,1.3s-.59,1.3-1.31,1.3-1.32-.58-1.32-1.3.59-1.3,1.32-1.3Z"/>
      <path d="M38.87,65.32c.73,0,1.32.58,1.32,1.3s-.59,1.3-1.32,1.3-1.32-.58-1.32-1.3.59-1.3,1.32-1.3Z"/>
      <path d="M62.94,71.62c.73,0,1.32.58,1.32,1.3s-.59,1.3-1.32,1.3-1.31-.58-1.31-1.3.59-1.3,1.31-1.3Z"/>
      <path d="M75.59,52.82c.73,0,1.31.58,1.31,1.3s-.59,1.3-1.31,1.3-1.32-.58-1.32-1.3.59-1.3,1.32-1.3Z"/>
    </g>
  </g>
</svg>